<?xml version="1.0" encoding="UTF-8"?>
<svg xmlns="http://www.w3.org/2000/svg" width="525.59" height="200" viewBox="0 0 525.59 200">
  <defs>
    <style>.a{fill:#023f2d;}.b{fill:#e62c36;}</style>
  </defs>
  <g transform="translate(0.029)">
    <path class="a" d="M239.794,41.211c17.754-5.35,38.213-7.172,61.728-3.645,0,.353-20.106,6.7-48.383,22.163C276.3,97,282.18,137.8,283.3,163.257L327.213,18.048A13.955,13.955,0,0,0,313.868,0H189A166.012,166.012,0,0,1,239.794,41.211Z" transform="translate(-77.901)"></path>
    <path class="b" d="M147.078,92.189C117.272,112,83.645,140.514,55.72,180.138c0,0,17.578-69.841,71.37-106.761-21.105-16.99-44.151-28.1-62.9-35.1a13.97,13.97,0,0,0-18.225,9.053L.576,197.3a14.035,14.035,0,0,0,13.345,18.107H173.3A14.076,14.076,0,0,0,187.29,201.36C187.466,153.095,170.241,117.821,147.078,92.189Z" transform="translate(0 -15.411)"></path>
    <g transform="translate(239.083 37.566)">
      <path class="a" d="M512.4,153.847c-6.761,22.516-29.571,37.272-52.263,37.272H406.7L444.972,63.9h49.794c22.163,0,35.861,14.345,29.218,36.332A46.341,46.341,0,0,1,505.407,125.1C513.049,131.155,516.283,140.972,512.4,153.847ZM465.9,91.178l-6.761,22.516h20.635c6.526,0,12.522-4.7,14.462-11.287s-.941-11.287-7.7-11.287H465.9Zm18.107,60.494c2.116-7.113-1.058-12.169-8.348-12.169H451.321l-7.349,24.339h24.339A16.6,16.6,0,0,0,484.007,151.672Z" transform="translate(-406.7 -63.9)"></path>
      <path class="a" d="M715.874,91.884H683.187l-29.865,99.236h-29.1l29.865-99.236H621.4L629.807,63.9h94.474Z" transform="translate(-495.18 -63.9)"></path>
      <path class="a" d="M835.851,163.136l-8.407,27.984H752.9L791.172,63.9h29.1l-29.865,99.236h45.444Z" transform="translate(-549.373 -63.9)"></path>
    </g>
  </g>
</svg>
