<!DOCTYPE svg PUBLIC "-//W3C//DTD SVG 1.1//EN" "http://www.w3.org/Graphics/SVG/1.1/DTD/svg11.dtd">
<!-- Uploaded to: SVG Repo, www.svgrepo.com, Transformed by: SVG Repo Mixer Tools -->
<svg height="256px" width="256px" version="1.1" id="Layer_1" xmlns="http://www.w3.org/2000/svg" xmlns:xlink="http://www.w3.org/1999/xlink" viewBox="0 0 512 512" xml:space="preserve" fill="#000000">
<g id="SVGRepo_bgCarrier" stroke-width="0"/>
<g id="SVGRepo_tracerCarrier" stroke-linecap="round" stroke-linejoin="round"/>
<g id="SVGRepo_iconCarrier"> <g transform="translate(1 1)"> <path style="fill:#d4af37;" d="M233.667,272.067c2.56-5.12,5.12-11.093,5.12-17.067s-1.707-11.947-5.12-17.067h63.147 c-7.68-43.52-46.08-76.8-92.16-76.8c-52.907,0-94.72,41.813-94.72,93.867s41.813,93.867,93.867,93.867 c46.08,0,84.48-33.28,92.16-76.8H233.667z"/> <path style="fill:#FFFFFF;" d="M135.533,255c0-47.787,34.987-87.04,81.067-93.013c-4.267-0.853-8.533-0.853-12.8-0.853 c-51.2,0-93.867,41.813-93.867,93.867s42.667,93.867,93.867,93.867c4.267,0,8.533,0,12.8-0.853 C171.373,342.04,135.533,302.787,135.533,255"/> <path style="fill:#d4af37;" d="M254.147,502.467h-99.84c-5.973,0-10.24-4.267-10.24-9.387V434.2h119.467v58.88 C263.533,498.2,259.267,502.467,254.147,502.467"/> <g> <path style="fill:#000000;" d="M237.933,255c0,18.773-15.36,34.133-34.133,34.133s-34.133-15.36-34.133-34.133 s15.36-34.133,34.133-34.133S237.933,236.227,237.933,255"/> <path style="fill:#000000;" d="M383,237.933H233.667c2.56,5.12,5.12,11.093,5.12,17.067s-1.707,11.947-5.12,17.067H383 c9.387,0,17.067-7.68,17.067-17.067S392.387,237.933,383,237.933"/> </g> <g> <path style="fill:#d4af37;" d="M263.533,75.8H144.067V16.92c0-5.12,4.267-9.387,10.24-9.387h99.84c5.12,0,9.387,4.267,9.387,9.387 V75.8z"/> <path style="fill:#d4af37;" d="M288.28,127H120.173c-5.973,0-10.24-4.267-10.24-9.387V85.187c0-5.12,4.267-9.387,10.24-9.387 H288.28c5.12,0,9.387,4.267,9.387,9.387v31.573C297.667,122.733,293.4,127,288.28,127"/> <path style="fill:#d4af37;" d="M288.28,434.2H120.173c-5.973,0-10.24-4.267-10.24-9.387V393.24c0-5.973,4.267-10.24,10.24-10.24 H288.28c5.12,0,9.387,4.267,9.387,9.387v31.573C297.667,429.933,293.4,434.2,288.28,434.2"/> <path style="fill:#d4af37;" d="M203.8,161.133c23.04,0,43.52,7.68,59.733,21.333V127H144.067v55.467 C160.28,168.813,181.613,161.133,203.8,161.133"/> <path style="fill:#d4af37;" d="M203.8,348.867c-23.04,0-43.52-7.68-59.733-21.333V383h119.467v-55.467 C247.32,341.187,226.84,348.867,203.8,348.867"/> </g> <path style="fill:#d4af37;" d="M239.64,434.2v58.88c0,5.12-4.267,9.387-9.387,9.387h25.6c5.12,0,9.387-4.267,9.387-9.387V434.2 H239.64z"/> <path style="fill:#000000;" d="M384.707,237.933h-25.6c9.387,0,17.067,7.68,17.067,17.067s-7.68,17.067-17.067,17.067h25.6 c9.387,0,17.067-7.68,17.067-17.067S394.093,237.933,384.707,237.933"/> <g> <path style="fill:#d4af37;" d="M255,7.533h-25.6c5.12,0,9.387,4.267,9.387,9.387V75.8h25.6V16.92 C265.24,11.8,260.973,7.533,255,7.533"/> <path style="fill:#d4af37;" d="M289.133,75.8h-25.6c5.12,0,9.387,4.267,9.387,9.387v31.573c0,5.12-4.267,9.387-9.387,9.387h25.6 c5.12,0,9.387-4.267,9.387-9.387V85.187C299.373,80.067,295.107,75.8,289.133,75.8"/> <path style="fill:#d4af37;" d="M289.133,383h-25.6c5.12,0,9.387,4.267,9.387,9.387v31.573c0,5.12-4.267,9.387-9.387,9.387h25.6 c5.12,0,9.387-4.267,9.387-9.387v-31.573C299.373,387.267,295.107,383,289.133,383"/> <path style="fill:#d4af37;" d="M239.64,127v40.96c9.387,3.413,17.92,8.533,25.6,15.36V127H239.64z"/> <path style="fill:#d4af37;" d="M239.64,342.04V383h25.6v-55.467C257.56,333.507,249.027,338.627,239.64,342.04"/> </g> <g> <path style="fill:#FFFFFF;" d="M169.667,434.2v58.88c0,5.12,4.267,9.387,10.24,9.387h-25.6c-5.973,0-10.24-4.267-10.24-9.387 V434.2H169.667z"/> <path style="fill:#FFFFFF;" d="M154.307,7.533h25.6c-5.973,0-10.24,4.267-10.24,9.387V75.8h-25.6V16.92 C144.067,11.8,148.333,7.533,154.307,7.533"/> <path style="fill:#FFFFFF;" d="M120.173,75.8h25.6c-5.973,0-10.24,4.267-10.24,9.387v31.573c0,5.973,4.267,10.24,10.24,10.24 h-25.6c-5.973,0-10.24-4.267-10.24-9.387V85.187C109.933,80.067,114.2,75.8,120.173,75.8"/> <path style="fill:#FFFFFF;" d="M120.173,383h25.6c-5.973,0-10.24,4.267-10.24,9.387v31.573c0,5.973,4.267,10.24,10.24,10.24h-25.6 c-5.973,0-10.24-4.267-10.24-9.387V393.24C109.933,387.267,114.2,383,120.173,383"/> <path style="fill:#FFFFFF;" d="M169.667,127v40.96c-9.387,3.413-17.92,8.533-25.6,15.36V127H169.667z"/> <path style="fill:#FFFFFF;" d="M169.667,342.04V383h-25.6v-55.467C151.747,333.507,160.28,338.627,169.667,342.04"/> </g> <path d="M254.147,511h-99.84c-10.24,0-18.773-8.533-18.773-17.92V434.2c0-5.12,3.413-8.533,8.533-8.533h119.467 c5.12,0,8.533,3.413,8.533,8.533v58.88C272.067,502.467,264.387,511,254.147,511z M152.6,442.733v50.347 c0,0,0.853,0.853,1.707,0.853h99.84c0.853,0,0.853-0.853,0.853-0.853v-50.347H152.6z"/> <path d="M263.533,84.333H144.067c-4.267,0-8.533-3.413-8.533-8.533V16.92c0-9.387,8.533-17.92,18.773-17.92h99.84 c10.24,0,17.92,8.533,17.92,17.92V75.8C272.067,80.92,268.653,84.333,263.533,84.333z M152.6,67.267H255V16.92 c0,0,0-0.853-0.853-0.853h-99.84c-0.853,0-1.707,0.853-1.707,0.853V67.267z"/> <path d="M288.28,135.533H120.173c-10.24,0-18.773-8.533-18.773-17.92V85.187c0-9.387,8.533-17.92,18.773-17.92H288.28 c10.24,0,17.92,8.533,17.92,17.92v31.573C306.2,127,298.52,135.533,288.28,135.533z M120.173,84.333 c-0.853,0-1.707,0.853-1.707,0.853v31.573c0,0.853,0.853,1.707,1.707,1.707H288.28c0.853,0,0.853-0.853,0.853-0.853V85.187 c0,0,0-0.853-0.853-0.853H120.173z"/> <path d="M288.28,442.733H120.173c-10.24,0-18.773-8.533-18.773-17.92V393.24c0-10.24,8.533-18.773,18.773-18.773H288.28 c10.24,0,17.92,8.533,17.92,17.92v31.573C306.2,434.2,298.52,442.733,288.28,442.733z M120.173,391.533 c-0.853,0-1.707,0.853-1.707,0.853v31.573c0,0.853,0.853,1.707,1.707,1.707H288.28c0.853,0,0.853-0.853,0.853-0.853V393.24 c0-0.853-0.853-0.853-0.853-0.853H120.173V391.533z"/> <path d="M263.533,191c-1.707,0-4.267-0.853-5.12-1.707c-15.36-12.8-34.133-19.627-54.613-19.627s-39.253,6.827-54.613,19.627 c-2.56,1.707-5.973,2.56-9.387,0.853c-2.56-0.853-4.267-4.267-4.267-7.68V127c0-5.12,3.413-8.533,8.533-8.533h119.467 c5.12,0,8.533,3.413,8.533,8.533v55.467c0,3.413-1.707,5.973-5.12,7.68C266.093,191,265.24,191,263.533,191z M203.8,152.6 c17.92,0,35.84,5.12,51.2,13.653v-30.72H152.6v30.72C167.96,157.72,185.88,152.6,203.8,152.6z"/> <path d="M263.533,391.533H144.067c-5.12,0-8.533-3.413-8.533-8.533v-55.467c0-3.413,1.707-5.973,5.12-7.68 c2.56-1.707,6.827-0.853,9.387,0.853c15.36,12.8,34.133,19.627,54.613,19.627s39.253-6.827,54.613-19.627 c2.56-1.707,5.973-2.56,9.387-0.853s5.12,4.267,5.12,7.68V383C272.067,388.12,268.653,391.533,263.533,391.533z M152.6,374.467H255 v-30.72c-30.72,17.92-71.68,17.92-102.4,0V374.467z"/> <path d="M203.8,297.667c-23.893,0-42.667-18.773-42.667-42.667s18.773-42.667,42.667-42.667s42.667,18.773,42.667,42.667 S227.693,297.667,203.8,297.667z M203.8,229.4c-14.507,0-25.6,11.093-25.6,25.6c0,14.507,11.093,25.6,25.6,25.6 c14.507,0,25.6-11.093,25.6-25.6C229.4,240.493,218.307,229.4,203.8,229.4z"/> <path d="M383,280.6H233.667c-3.413,0-5.973-1.707-7.68-4.267s-1.707-5.973,0-8.533c2.56-4.267,3.413-8.533,3.413-12.8 c0-4.267-0.853-8.533-3.413-12.8c-1.707-2.56-1.707-5.973,0-8.533c1.707-2.56,4.267-4.267,7.68-4.267H383 c14.507,0,25.6,11.093,25.6,25.6C408.6,269.507,397.507,280.6,383,280.6z M245.613,263.533H383c5.12,0,8.533-3.413,8.533-8.533 s-3.413-8.533-8.533-8.533H245.613c0.853,2.56,0.853,5.973,0.853,8.533C246.467,257.56,246.467,260.973,245.613,263.533z"/> <path d="M203.8,357.4c-56.32,0-102.4-46.08-102.4-102.4s46.08-102.4,102.4-102.4c49.493,0,91.307,34.987,100.693,83.627 l1.707,10.24h-60.587c0.853,2.56,0.853,5.973,0.853,8.533c0,2.56,0,5.973-0.853,8.533H306.2l-1.707,10.24 C295.96,322.413,253.293,357.4,203.8,357.4z M203.8,169.667c-46.933,0-85.333,38.4-85.333,85.333s38.4,85.333,85.333,85.333 c37.547,0,69.973-24.747,81.067-59.733h-66.56l7.68-12.8c2.56-4.267,3.413-8.533,3.413-12.8c0-4.267-0.853-8.533-3.413-12.8 l-7.68-12.8h66.56C274.627,194.413,241.347,169.667,203.8,169.667z"/> </g> </g>
</svg>