<!DOCTYPE svg PUBLIC "-//W3C//DTD SVG 1.1//EN" "http://www.w3.org/Graphics/SVG/1.1/DTD/svg11.dtd">
<!-- Uploaded to: SVG Repo, www.svgrepo.com, Transformed by: SVG Repo Mixer Tools -->
<svg height="800px" width="800px" version="1.1" id="Layer_1" xmlns="http://www.w3.org/2000/svg" xmlns:xlink="http://www.w3.org/1999/xlink" viewBox="0 0 390.206 390.206" xml:space="preserve" fill="#000000">
<g id="SVGRepo_bgCarrier" stroke-width="0"/>
<g id="SVGRepo_tracerCarrier" stroke-linecap="round" stroke-linejoin="round"/>
<g id="SVGRepo_iconCarrier"> <path style="fill:#FFFFFF;" d="M338.769,110.545l-5.43-13.576c-1.099-2.715-3.814-2.715-5.43-2.198 c-8.663,3.814-18.941,2.198-25.988-3.814l-41.18-33.616c-0.517-0.517-3.814-1.099-4.331-0.517l-129.552,53.657 c-1.616,0.517-2.198,1.616-2.715,3.232l-4.848,53.139c-1.099,9.762-7.046,17.907-15.709,21.139c-2.198,1.099-3.232,3.232-2.198,5.43 l5.43,13.576c1.099,2.715,3.814,2.715,5.43,2.198l224.388-93.22C338.769,114.877,339.804,112.162,338.769,110.545z"/> <path style="fill:#000;" d="M139.852,173.964c0.517-1.616,0.517-3.232,0.517-4.848l4.331-42.279l110.028-45.511l33.034,27.087 c1.099,1.099,2.715,2.198,4.331,3.232L139.852,173.964z"/> <g> <path style="fill:#d4af37;" d="M344.717,171.83l-5.947-14.093c-2.198-5.43-8.663-8.145-14.093-5.947 c-5.43,2.198-8.145,8.663-5.947,14.093l5.947,14.093c1.616,4.848,8.145,8.663,14.093,5.947 C344.135,183.725,346.85,177.196,344.717,171.83z"/> <path style="fill:#d4af37;" d="M389.129,279.079l-5.947-14.093c-2.198-5.43-8.663-8.145-14.093-5.947 c-5.43,2.198-8.145,8.663-5.947,14.093l5.947,14.093c1.616,4.848,8.145,8.663,14.093,5.947 C389.129,291.038,391.844,285.091,389.129,279.079z"/> <path style="fill:#d4af37;" d="M366.955,225.422l-5.947-14.093c-2.198-5.43-8.663-8.145-14.093-5.947 c-5.43,2.198-8.145,8.663-5.947,14.093l5.947,14.093c1.616,4.848,8.145,8.663,14.093,5.947 C366.955,237.382,369.088,230.853,366.955,225.422z"/> <path style="fill:#d4af37;" d="M311.101,217.341l-5.43-14.093c-2.198-5.43-8.663-8.145-14.093-5.947 c-5.43,2.198-8.145,8.663-5.947,14.093l5.947,14.093c1.616,4.848,8.145,8.663,14.093,5.947 C311.101,229.236,313.816,222.772,311.101,217.341z"/> <path style="fill:#d4af37;" d="M327.909,256.905c-2.198-5.43-8.663-8.145-14.093-5.947c-5.43,2.198-8.145,8.663-5.947,14.093 l5.947,14.093c1.616,4.848,8.145,8.663,14.093,5.947c5.43-2.198,8.145-8.663,5.947-14.093L327.909,256.905z"/> <path style="fill:#d4af37;" d="M222.212,254.19l-5.947-14.093c-2.198-5.43-8.663-8.145-14.093-5.947 c-5.43,2.198-8.145,8.663-5.947,14.093l5.947,14.093c1.616,4.848,8.145,8.663,14.093,5.947 C221.695,266.085,224.41,259.62,222.212,254.19z"/> <path style="fill:#d4af37;" d="M238.503,293.754c-2.198-5.43-8.663-8.145-14.093-5.947c-5.43,2.198-8.145,8.663-5.947,14.093 l5.947,14.093c1.616,4.848,8.145,8.663,14.093,5.947c5.43-2.198,8.145-8.663,5.947-14.093L238.503,293.754z"/> <path style="fill:#d4af37;" d="M255.828,208.679l-5.947-14.093c-2.198-5.43-8.663-8.145-14.093-5.947 c-5.43,2.198-8.145,8.663-5.947,14.093l5.947,14.093c1.616,4.848,8.145,8.663,14.093,5.947 C255.311,220.574,257.961,214.626,255.828,208.679z"/> <path style="fill:#d4af37;" d="M294.292,302.416c-2.198-5.43-8.663-8.145-14.093-5.947c-5.43,2.198-8.145,8.663-5.947,14.093 l5.947,14.093c1.616,4.849,8.145,8.663,14.093,5.948c5.43-2.198,8.145-8.663,5.947-14.093L294.292,302.416z"/> <path style="fill:#d4af37;" d="M278.066,262.853l-6.012-14.093c-2.198-5.43-8.663-8.145-14.093-5.947 c-5.43,2.198-8.145,8.663-5.947,14.093l5.947,14.093c1.616,4.848,8.145,8.663,14.093,5.947 C277.484,274.747,280.2,268.283,278.066,262.853z"/> <path style="fill:#d4af37;" d="M166.422,246.044l-5.947-14.093c-2.198-5.43-8.663-8.145-14.093-5.947 c-5.43,2.198-8.145,8.663-5.947,14.093l5.947,14.093c1.616,4.848,8.145,8.663,14.093,5.947 C166.422,257.939,168.555,251.475,166.422,246.044z"/> <path style="fill:#d4af37;" d="M205.404,339.265c-2.198-5.43-8.663-8.145-14.093-5.947c-5.43,2.198-8.145,8.663-5.947,14.093 l5.947,14.093c1.616,4.848,8.145,8.663,14.093,5.947c5.43-2.198,8.145-8.663,5.947-14.093L205.404,339.265z"/> <path style="fill:#d4af37;" d="M188.596,299.701l-5.947-14.093c-2.198-5.43-8.663-8.145-14.093-5.947s-8.145,8.663-5.947,14.093 l5.947,14.093c1.616,4.848,8.145,8.663,14.093,5.947C188.596,311.596,191.311,305.131,188.596,299.701z"/> <path style="fill:#d4af37;" d="M358.81,101.883l-5.43-13.576c-3.814-9.762-13.576-15.709-23.855-15.709 c-3.232,0-6.529,0.517-9.762,2.198c-1.616,0.517-3.232,0.517-4.331-0.517l-41.18-33.616c-7.046-5.947-17.325-7.564-25.988-3.814 L192.41,60.121L163.707,5.947C162.09,2.715,158.276,0,153.945,0H10.882C4.935,0,0.022,4.848,0.022,10.861v368.485 c0,5.947,4.848,10.861,10.861,10.861s10.861-4.848,10.861-10.861V21.657h125.22l24.954,46.61l-53.139,22.238 c-8.663,3.814-14.61,11.895-15.709,21.139l-4.848,53.139c0,1.616-1.099,2.715-2.715,3.232 c-12.994,5.43-19.523,20.622-14.093,33.616l5.43,13.576c5.947,13.576,20.622,19.523,33.616,14.093l224.388-93.22 C358.228,130.069,364.24,114.877,358.81,101.883z M106.753,206.998l-5.43-13.576c-1.099-2.198,0-4.331,2.198-5.43 c8.663-3.814,14.61-11.895,15.709-21.139l4.848-53.139c0-1.616,1.099-2.715,2.715-3.232l129.552-53.657 c0.517,0,3.232,0,4.331,0.517l41.18,33.616c7.046,5.947,17.325,7.564,25.988,3.814c1.616-0.517,4.331-0.517,5.43,2.198l5.43,13.576 c1.099,2.198,0,4.331-2.198,5.43l-224.323,93.22C110.567,209.713,107.852,209.196,106.753,206.998z"/> </g> </g>
</svg>